{"title":"Cold.Eyes.2013.HDTV.720p.Cinemania.cc.mkv","uid":8898458,"size":4862077722,"categoryP":"video","categoryS":"hd___movies","magnet":"?xt=urn:btih:5b90a26692b8a3ddbd20a06fef68518d86737d89&amp;dn=Cold.Eyes.2013.HDTV.720p.Cinemania.cc.mkv&amp;tr=udp%3A%2F%2Ftracker.openbittorrent.com%3A80&amp;tr=udp%3A%2F%2Fopen.demonii.com%3A1337&amp;tr=udp%3A%2F%2Ftracker.coppersurfer.tk%3A6969&amp;tr=udp%3A%2F%2Fexodus.desync.com%3A6969","seeders":2,"leechers":0,"uploader":"ABSTAIN","files":1,"time":1378756522,"description":"[img]http://cinemania.cc/torrents/images/6260.jpg[/img]\n &lt;a href=&quot;\nhttp://www.imdb.com/title/tt2969656/&quot; rel=&quot;nofollow&quot; target=&quot;_NEW&quot;&gt;\nhttp://www.imdb.com/title/tt2969656/&lt;/a&gt;\n\nGeneral \nCold.Eyes.2013.HDTV.720p.Cinemania.cc.mkv \nFormat : Matroska \nFormat version : Version 4 / Version 2 \nFile size : 4.53 GiB \nDuration : 1h 58mn \nOverall bit rate : 5 450 Kbps \nMovie name : CINEMANIA.CC \nEncoded date : UTC 2013-09-09 17:33:15 \nWriting application : mkvmerge v6.3.0 ('You can't stop me!') built on Jun 28 2013 20:09:41 \nWriting library : libebml v1.3.0 + libmatroska v1.4.0 \n\nVideo \nID : 1 \nFormat : AVC \nFormat/Info : Advanced Video Codec \nFormat profile : &lt;a class=&quot;__cf_email__&quot; href=&quot;/cdn-cgi/l/email-protection&quot; data-cfemail=&quot;eba3828c83aba7dfc5da&quot;&gt;[email&amp;#160;protected]&lt;/a&gt;&lt;script cf-hash='f9e31' type=&quot;text/javascript&quot;&gt;\n/* &lt;![CDATA[ */!function(){try{var t=&quot;currentScript&quot;in document?document.currentScript:function(){for(var t=document.getElementsByTagName(&quot;script&quot;),e=t.length;e--;)if(t[e].getAttribute(&quot;cf-hash&quot;))return t[e]}();if(t&amp;&amp;t.previousSibling){var e,r,n,i,c=t.previousSibling,a=c.getAttribute(&quot;data-cfemail&quot;);if(a){for(e=&quot;&quot;,r=parseInt(a.substr(0,2),16),n=2;a.length-n;n+=2)i=parseInt(a.substr(n,2),16)^r,e+=String.fromCharCode(i);e=document.createTextNode(e),c.parentNode.replaceChild(e,c)}}}catch(u){}}();/* ]]&gt; */&lt;/script&gt; \nFormat settings, CABAC : Yes \nFormat settings, ReFrames : 8 frames \nCodec ID : V_MPEG4/ISO/AVC \nDuration : 1h 58mn \nBit rate : 4 876 Kbps \nWidth : 1 280 pixels \nHeight : 544 pixels \nDisplay aspect ratio : 2.35:1 \nFrame rate mode : Constant \nFrame rate : 29.970 fps \nColor space : YUV \nChroma subsampling : 4:2:0 \nBit depth : 8 bits \nScan type : Progressive \nBits/(Pixel*Frame) : 0.234 \nStream size : 3.96 GiB (87%) \nTitle : CINEMANIA.CC \nWriting library : x264 core 112 r1867 22bfd31 \nEncoding settings : cabac=1 // deblock=1:-3:-3 / analyse=0x3:0x133 / me=umh / subme=9 / psy=1 / psy_rd=1.00:0.00 // me_range=16 / chroma_me=1 / trellis=2 / 8x8dct=1 / cqm=0 / deadzone=21,11 / fast_pskip=1 / chroma_qp_offset=-4 / threads=12 / sliced_threads=0 / nr=0 / decimate=0 / interlaced=0 / constrained_intra=0 / bframes=3 / b_pyramid=2 / b_adapt=2 / b_bias=0 / direct=3 / weightb=1 / open_gop=0 / weightp=2 / keyint=250 / keyint_min=25 / scenecut=40 / intra_refresh=0 / rc_lookahead=60 / rc=2pass / mbtree=1 / bitrate=4876 / ratetol=1.0 / qcomp=0.60 / qpmin=10 / qpmax=51 / qpstep=4 / cplxblur=20.0 / qblur=0.5 / vbv_maxrate=8000 / vbv_bufsize=5000 / nal_hrd=none / ip_ratio=1.40 / aq=1:1.00 \nDefault : Yes \nForced : No \n\nAudio #1 \nID : 2 \nFormat : AC-3 \nFormat/Info : Audio Coding 3 \nMode extension : CM (complete main) \nFormat settings, Endianness : Big \nCodec ID : A_AC3 \nDuration : 1h 58mn \nBit rate mode : Constant \nBit rate : 192 Kbps \nChannel(s) : 2 channels \nChannel positions : Front: L R \nSampling rate : 48.0 KHz \nBit depth : 16 bits \nCompression mode : Lossy \nStream size : 163 MiB (4%) \nTitle : den904 &amp; DeadSno \nLanguage : Russian \nDefault : Yes \nForced : Yes \n\nAudio #2 \nID : 3 \nFormat : AC-3 \nFormat/Info : Audio Coding 3 \nMode extension : CM (complete main) \nFormat settings, Endianness : Big \nCodec ID : A_AC3 \nDuration : 1h 58mn \nBit rate mode : Constant \nBit rate : 384 Kbps \nChannel(s) : 2 channels \nChannel positions : Front: L R \nSampling rate : 48.0 KHz \nBit depth : 16 bits \nCompression mode : Lossy \nStream size : 327 MiB (7%) \nLanguage : Korean \nDefault : No \nForced : No \n\nText #1 \nID : 4 \nFormat : UTF-8 \nCodec ID : S_TEXT/UTF8 \nCodec ID/Info : UTF-8 Plain Text \nTitle : indiotka \nLanguage : Russian \nDefault : No \nForced : No \n\nText #2 \nID : 5 \nFormat : UTF-8 \nCodec ID : S_TEXT/UTF8 \nCodec ID/Info : UTF-8 Plain Text \nLanguage : English \nDefault : No \nForced : No ","torrent":{"xt":"urn:btih:5b90a26692b8a3ddbd20a06fef68518d86737d89","amp;dn":"Cold.Eyes.2013.HDTV.720p.Cinemania.cc.mkv","amp;tr":["udp%3A%2F%2Ftracker.openbittorrent.com%3A80","udp%3A%2F%2Fopen.demonii.com%3A1337","udp%3A%2F%2Ftracker.coppersurfer.tk%3A6969","udp%3A%2F%2Fexodus.desync.com%3A6969"],"infoHash":"5b90a26692b8a3ddbd20a06fef68518d86737d89","infoHashBuffer":{"type":"Buffer","data":[91,144,162,102,146,184,163,221,189,32,160,111,239,104,81,141,134,115,125,137]},"announce":[],"urlList":[]}}